<svg width="123.68000183105468px" height="129.44000549316405px" xmlns="http://www.w3.org/2000/svg"
  viewBox="188.15999908447264 10.279997253417974 123.68000183105468 129.44000549316405"
  style="background: rgba(0, 0, 0, 0);" preserveAspectRatio="xMidYMid">
  <defs>
    <linearGradient id="editing-shiny-gradient" x1="0.04322727117869957" x2="0.9567727288213004" y1="0.2966316784620999"
      y2="0.7033683215379001" gradientUnits="objectBoundingBox">
      <stop offset="0.0" stop-color="#ffb200"></stop>
      <stop offset="0.5" stop-color="#e10057"></stop>
      <stop offset="1.0" stop-color="#5A1A80"></stop>
    </linearGradient>
    <linearGradient id="editing-shiny-gradient2" x1="0" x2="0" y1="0" y2="1">
      <stop offset="0.2" stop-color="transparent" stop-opacity="0.8"></stop>
      <stop offset="0.8" stop-color="transparent" stop-opacity="0"></stop>
    </linearGradient>
    <filter id="editing-shiny2" x="-100%" y="-100%" width="300%" height="300%">
      <feMorphology operator="erode" radius="2"></feMorphology>
    </filter>
    <filter id="editing-shiny" x="-100%" y="-100%" width="300%" height="300%">
      <feFlood flood-color="transparent" result="flood"></feFlood>
      <feConvolveMatrix in="SourceGraphic" result="conv" order="8,8" divisor="1"
        kernelMatrix="0 0 0 0 0 0 0 0 0 0 0 1 1 0 0 0 0 0 0 1 1 0 0 0 0 0 1 0 0 1 0 0 0 0 1 0 0 1 0 0 0 1 0 0 0 0 1 0 0 1 1 0 0 1 1 0 0 0 0 1 1 0 0 0 ">
      </feConvolveMatrix>
      <feOffset dx="0" dy="4" in="conv" result="offset"></feOffset>
      <feComposite operator="in" in="flood" in2="offset" result="comp"></feComposite>
      <feGaussianBlur in="offset" stdDeviation="3" result="shadow"></feGaussianBlur>
      <feColorMatrix in="shadow" type="matrix" values="0.7 0 0 0 0  0 0.7 0 0 0  0 0 0.7 0 0  0 0 0 0.3 0"
        result="dark-shadow"></feColorMatrix>
      <feOffset dx="0" dy="4" in="dark-shadow" result="offset-shadow"></feOffset>
      <feOffset dx="0" dy="2" in="conv" result="offset-2"></feOffset>
      <feComposite operator="out" in="offset" in2="offset-2" result="edge-diff"></feComposite>
      <feGaussianBlur in="edge-diff" stdDeviation="1" result="edge-blur"></feGaussianBlur>
      <feColorMatrix in="edge-blur" result="edge-shadow" type="matrix"
        values="0 0 0 0 0  0 0 0 0 0  0 0 0 0 0  0 0 0 0.5 0"></feColorMatrix>
      <feComposite operator="in" in="edge-shadow" in2="offset" result="edge-shadow-in"></feComposite>
      <feOffset dx="0" dy="1" in="edge-shadow-in" result="edge-shadow-final"></feOffset>
      <feMerge result="out">
        <feMergeNode in="offset-shadow"></feMergeNode>
        <feMergeNode in="comp"></feMergeNode>
        <feMergeNode in="edge-shadow-final"></feMergeNode>
        <feMergeNode in="SourceGraphic"></feMergeNode>
      </feMerge>
    </filter>
  </defs>
  <g filter="url(#editing-shiny)">
    <g transform="translate(215.37822920084, 96.39052391052246)">
      <path
        d="M13.57-5.18L13.57-5.18L13.57-5.18Q7.81 5.63 2.69 5.63L2.69 5.63L2.69 5.63Q-0.58 5.63-0.58 2.30L-0.58 2.30L-0.58 2.30Q-0.58 0.32 0.96-2.11L0.96-2.11L0.96-2.11Q3.58-6.21 9.12-12.19L9.12-12.19L9.12-12.19Q14.66-18.18 18.50-21.70L18.50-21.70L20.93-29.95L20.93-29.95Q17.73-26.94 12.61-26.43L12.61-26.43L12.61-26.43Q11.97-26.37 11.94-26.82L11.94-26.82L11.94-26.82Q11.90-27.26 12.48-27.39L12.48-27.39L12.74-27.46L12.74-27.46Q15.49-27.71 18.40-30.34L18.40-30.34L18.40-30.34Q21.31-32.96 22.78-36.35L22.78-36.35L22.78-36.35Q23.04-37.18 25.02-37.15L25.02-37.15L25.02-37.15Q27.01-37.12 26.94-36.35L26.94-36.35L22.53-25.41L22.53-25.41Q31.23-32.77 35.01-32.96L35.01-32.96L35.01-32.96Q35.46-32.96 35.90-32.96L35.90-32.96L35.90-32.96Q40.96-32.96 42.88-29.63L42.88-29.63L42.88-29.63Q44.54-26.82 44.54-23.04L44.54-23.04L44.54-23.04Q44.54-17.41 41.09-6.91L41.09-6.91L41.09-6.91Q40.51-5.06 40.61-5.02L40.61-5.02L40.61-5.02Q40.70-4.99 40.96-5.41L40.96-5.41L40.96-5.41Q41.22-5.82 41.76-6.66L41.76-6.66L41.76-6.66Q42.30-7.49 44.35-10.88L44.35-10.88L44.35-10.88Q51.71-23.23 59.33-31.49L59.33-31.49L59.33-31.49Q61.82-34.11 64.32-34.11L64.32-34.11L64.32-34.11Q65.79-34.11 66.56-33.09L66.56-33.09L66.56-33.09Q67.33-32.06 67.33-30.85L67.33-30.85L67.33-30.85Q67.33-29.63 66.78-27.46L66.78-27.46L66.78-27.46Q66.24-25.28 63.49-18.37L63.49-18.37L63.49-18.37Q60.10-9.92 60.10-4.54L60.10-4.54L60.10-4.54Q60.10-0.38 62.40-0.38L62.40-0.38L62.40-0.38Q64.06-0.38 66.82-2.50L66.82-2.50L66.82-2.50Q71.04-6.02 73.60-9.47L73.60-9.47L73.60-9.47Q73.92-9.92 74.21-9.66L74.21-9.66L74.21-9.66Q74.50-9.41 74.50-9.25L74.50-9.25L74.50-9.25Q74.50-9.09 74.37-8.96L74.37-8.96L74.37-8.96Q73.15-7.04 70.53-4.35L70.53-4.35L70.53-4.35Q66.24 0.19 63.62 1.02L63.62 1.02L63.62 1.02Q62.34 1.47 61.12 1.47L61.12 1.47L61.12 1.47Q56.90 1.41 56.90-4.61L56.90-4.61L56.90-4.61Q56.90-7.74 57.66-10.69L57.66-10.69L57.66-10.69Q58.43-13.63 58.91-15.23L58.91-15.23L58.91-15.23Q59.39-16.83 60.16-18.98L60.16-18.98L60.16-18.98Q60.93-21.12 61.44-22.27L61.44-22.27L61.44-22.27Q63.10-26.43 63.49-27.46L63.49-27.46L63.49-27.46Q63.87-28.48 63.87-29.22L63.87-29.22L63.87-29.22Q63.87-29.95 63.49-30.24L63.49-30.24L63.49-30.24Q63.10-30.53 62.46-30.53L62.46-30.53L62.46-30.53Q61.82-30.53 60.48-29.38L60.48-29.38L60.48-29.38Q55.55-25.15 49.38-16.06L49.38-16.06L49.38-16.06Q43.20-6.98 40.70-1.79L40.70-1.79L40.70-1.79Q40.19-0.70 39.68-0.70L39.68-0.70L39.68-0.70Q39.17-0.70 38.59-1.63L38.59-1.63L38.59-1.63Q38.02-2.56 38.02-2.98L38.02-2.98L38.02-2.98Q38.02-3.39 38.08-3.52L38.08-3.52L38.08-3.52Q39.74-7.74 40.48-12.54L40.48-12.54L40.48-12.54Q41.22-17.34 41.22-20.42L41.22-20.42L41.22-20.42Q41.22-31.23 36.54-31.23L36.54-31.23L36.54-31.23Q32.19-31.23 20.74-20.74L20.74-20.74L20.74-20.74Q20.16-19.07 18.24-14.72L18.24-14.72L18.24-14.72Q15.62-9.02 13.57-5.18ZM2.88 3.46L2.88 3.46L2.88 3.46Q6.85 3.46 12.61-7.62L12.61-7.62L12.61-7.62Q15.81-13.76 17.22-17.60L17.22-17.60L17.22-17.60Q13.82-14.40 9.73-9.76L9.73-9.76L9.73-9.76Q5.63-5.12 3.90-2.82L3.90-2.82L3.90-2.82Q1.66 0.19 1.66 1.82L1.66 1.82L1.66 1.82Q1.66 3.46 2.88 3.46Z"
        fill="url(#editing-shiny-gradient)"></path>
    </g>
  </g>
  <g filter="url(#editing-shiny2)">
    <g transform="translate(215.1713429093361, 96.39052772521973)">
      <path
        d="M13.57-5.18L13.57-5.18L13.57-5.18Q7.81 5.63 2.69 5.63L2.69 5.63L2.69 5.63Q-0.58 5.63-0.58 2.30L-0.58 2.30L-0.58 2.30Q-0.58 0.32 0.96-2.11L0.96-2.11L0.96-2.11Q3.58-6.21 9.12-12.19L9.12-12.19L9.12-12.19Q14.66-18.18 18.50-21.70L18.50-21.70L20.93-29.95L20.93-29.95Q17.73-26.94 12.61-26.43L12.61-26.43L12.61-26.43Q11.97-26.37 11.94-26.82L11.94-26.82L11.94-26.82Q11.90-27.26 12.48-27.39L12.48-27.39L12.74-27.46L12.74-27.46Q15.49-27.71 18.40-30.34L18.40-30.34L18.40-30.34Q21.31-32.96 22.78-36.35L22.78-36.35L22.78-36.35Q23.04-37.18 25.02-37.15L25.02-37.15L25.02-37.15Q27.01-37.12 26.94-36.35L26.94-36.35L22.53-25.41L22.53-25.41Q31.23-32.77 35.01-32.96L35.01-32.96L35.01-32.96Q35.46-32.96 35.90-32.96L35.90-32.96L35.90-32.96Q40.96-32.96 42.88-29.63L42.88-29.63L42.88-29.63Q44.54-26.82 44.54-23.04L44.54-23.04L44.54-23.04Q44.54-17.41 41.09-6.91L41.09-6.91L41.09-6.91Q40.51-5.06 40.61-5.02L40.61-5.02L40.61-5.02Q40.70-4.99 40.96-5.41L40.96-5.41L40.96-5.41Q41.22-5.82 41.76-6.66L41.76-6.66L41.76-6.66Q42.30-7.49 44.35-10.88L44.35-10.88L44.35-10.88Q51.71-23.23 59.33-31.49L59.33-31.49L59.33-31.49Q61.82-34.11 64.32-34.11L64.32-34.11L64.32-34.11Q65.79-34.11 66.56-33.09L66.56-33.09L66.56-33.09Q67.33-32.06 67.33-30.85L67.33-30.85L67.33-30.85Q67.33-29.63 66.78-27.46L66.78-27.46L66.78-27.46Q66.24-25.28 63.49-18.37L63.49-18.37L63.49-18.37Q60.10-9.92 60.10-4.54L60.10-4.54L60.10-4.54Q60.10-0.38 62.40-0.38L62.40-0.38L62.40-0.38Q64.06-0.38 66.82-2.50L66.82-2.50L66.82-2.50Q71.04-6.02 73.60-9.47L73.60-9.47L73.60-9.47Q73.92-9.92 74.21-9.66L74.21-9.66L74.21-9.66Q74.50-9.41 74.50-9.25L74.50-9.25L74.50-9.25Q74.50-9.09 74.37-8.96L74.37-8.96L74.37-8.96Q73.15-7.04 70.53-4.35L70.53-4.35L70.53-4.35Q66.24 0.19 63.62 1.02L63.62 1.02L63.62 1.02Q62.34 1.47 61.12 1.47L61.12 1.47L61.12 1.47Q56.90 1.41 56.90-4.61L56.90-4.61L56.90-4.61Q56.90-7.74 57.66-10.69L57.66-10.69L57.66-10.69Q58.43-13.63 58.91-15.23L58.91-15.23L58.91-15.23Q59.39-16.83 60.16-18.98L60.16-18.98L60.16-18.98Q60.93-21.12 61.44-22.27L61.44-22.27L61.44-22.27Q63.10-26.43 63.49-27.46L63.49-27.46L63.49-27.46Q63.87-28.48 63.87-29.22L63.87-29.22L63.87-29.22Q63.87-29.95 63.49-30.24L63.49-30.24L63.49-30.24Q63.10-30.53 62.46-30.53L62.46-30.53L62.46-30.53Q61.82-30.53 60.48-29.38L60.48-29.38L60.48-29.38Q55.55-25.15 49.38-16.06L49.38-16.06L49.38-16.06Q43.20-6.98 40.70-1.79L40.70-1.79L40.70-1.79Q40.19-0.70 39.68-0.70L39.68-0.70L39.68-0.70Q39.17-0.70 38.59-1.63L38.59-1.63L38.59-1.63Q38.02-2.56 38.02-2.98L38.02-2.98L38.02-2.98Q38.02-3.39 38.08-3.52L38.08-3.52L38.08-3.52Q39.74-7.74 40.48-12.54L40.48-12.54L40.48-12.54Q41.22-17.34 41.22-20.42L41.22-20.42L41.22-20.42Q41.22-31.23 36.54-31.23L36.54-31.23L36.54-31.23Q32.19-31.23 20.74-20.74L20.74-20.74L20.74-20.74Q20.16-19.07 18.24-14.72L18.24-14.72L18.24-14.72Q15.62-9.02 13.57-5.18ZM2.88 3.46L2.88 3.46L2.88 3.46Q6.85 3.46 12.61-7.62L12.61-7.62L12.61-7.62Q15.81-13.76 17.22-17.60L17.22-17.60L17.22-17.60Q13.82-14.40 9.73-9.76L9.73-9.76L9.73-9.76Q5.63-5.12 3.90-2.82L3.90-2.82L3.90-2.82Q1.66 0.19 1.66 1.82L1.66 1.82L1.66 1.82Q1.66 3.46 2.88 3.46Z"
        fill="url(#editing-shiny-gradient2)"></path>
    </g>
  </g>
  <style>
    text {
      font-size: 64px;
      font-family: Arial Black;
      dominant-baseline: central;
      text-anchor: middle;
    }
  </style>
</svg>